<?xml version="1.0" encoding="us-ascii" standalone="no"?><svg xmlns="http://www.w3.org/2000/svg" xmlns:xlink="http://www.w3.org/1999/xlink" contentStyleType="text/css" height="985px" preserveAspectRatio="none" style="width:1488px;height:985px;background:#FFFFFF;" version="1.1" viewBox="0 0 1488 985" width="1488px" zoomAndPan="magnify"><defs/><g><rect fill="#FFC0CB" height="226.6191" style="stroke:#000000;stroke-width:1.5;" width="1245" x="10" y="356.5313"/><line style="stroke:#181818;stroke-width:0.5;stroke-dasharray:5.0,5.0;" x1="37" x2="37" y1="83.6211" y2="902.3516"/><line style="stroke:#181818;stroke-width:0.5;stroke-dasharray:5.0,5.0;" x1="253.5" x2="253.5" y1="83.6211" y2="902.3516"/><line style="stroke:#181818;stroke-width:0.5;stroke-dasharray:5.0,5.0;" x1="418.5" x2="418.5" y1="83.6211" y2="902.3516"/><line style="stroke:#181818;stroke-width:0.5;stroke-dasharray:5.0,5.0;" x1="810.5" x2="810.5" y1="83.6211" y2="902.3516"/><line style="stroke:#181818;stroke-width:0.5;stroke-dasharray:5.0,5.0;" x1="1026" x2="1026" y1="83.6211" y2="902.3516"/><line style="stroke:#181818;stroke-width:0.5;stroke-dasharray:5.0,5.0;" x1="1185" x2="1185" y1="83.6211" y2="902.3516"/><line style="stroke:#181818;stroke-width:0.5;stroke-dasharray:5.0,5.0;" x1="1444.5" x2="1444.5" y1="83.6211" y2="902.3516"/><text fill="#000000" font-family="sans-serif" font-size="14" lengthAdjust="spacing" textLength="29" x="20" y="80.1074">User</text><ellipse cx="37.5" cy="13.5" fill="#E2E2F0" rx="8" ry="8" style="stroke:#181818;stroke-width:0.5;"/><path d="M37.5,21.5 L37.5,48.5 M24.5,29.5 L50.5,29.5 M37.5,48.5 L24.5,63.5 M37.5,48.5 L50.5,63.5 " fill="none" style="stroke:#181818;stroke-width:0.5;"/><text fill="#000000" font-family="sans-serif" font-size="14" lengthAdjust="spacing" textLength="29" x="20" y="916.459">User</text><ellipse cx="37.5" cy="928.4727" fill="#E2E2F0" rx="8" ry="8" style="stroke:#181818;stroke-width:0.5;"/><path d="M37.5,936.4727 L37.5,963.4727 M24.5,944.4727 L50.5,944.4727 M37.5,963.4727 L24.5,978.4727 M37.5,963.4727 L50.5,978.4727 " fill="none" style="stroke:#181818;stroke-width:0.5;"/><rect fill="#E2E2F0" height="32.6211" rx="2.5" ry="2.5" style="stroke:#181818;stroke-width:0.5;" width="132" x="187.5" y="50"/><text fill="#000000" font-family="sans-serif" font-size="14" lengthAdjust="spacing" textLength="118" x="194.5" y="72.1074">InvitationController</text><rect fill="#E2E2F0" height="32.6211" rx="2.5" ry="2.5" style="stroke:#181818;stroke-width:0.5;" width="132" x="187.5" y="901.3516"/><text fill="#000000" font-family="sans-serif" font-size="14" lengthAdjust="spacing" textLength="118" x="194.5" y="923.459">InvitationController</text><rect fill="#E2E2F0" height="32.6211" rx="2.5" ry="2.5" style="stroke:#181818;stroke-width:0.5;" width="179" x="329.5" y="50"/><text fill="#000000" font-family="sans-serif" font-size="14" lengthAdjust="spacing" textLength="165" x="336.5" y="72.1074">ExceptionControllerAdvice</text><rect fill="#E2E2F0" height="32.6211" rx="2.5" ry="2.5" style="stroke:#181818;stroke-width:0.5;" width="179" x="329.5" y="901.3516"/><text fill="#000000" font-family="sans-serif" font-size="14" lengthAdjust="spacing" textLength="165" x="336.5" y="923.459">ExceptionControllerAdvice</text><rect fill="#E2E2F0" height="32.6211" rx="2.5" ry="2.5" style="stroke:#181818;stroke-width:0.5;" width="117" x="752.5" y="50"/><text fill="#000000" font-family="sans-serif" font-size="14" lengthAdjust="spacing" textLength="103" x="759.5" y="72.1074">InvitationService</text><rect fill="#E2E2F0" height="32.6211" rx="2.5" ry="2.5" style="stroke:#181818;stroke-width:0.5;" width="117" x="752.5" y="901.3516"/><text fill="#000000" font-family="sans-serif" font-size="14" lengthAdjust="spacing" textLength="103" x="759.5" y="923.459">InvitationService</text><rect fill="#E2E2F0" height="32.6211" rx="2.5" ry="2.5" style="stroke:#181818;stroke-width:0.5;" width="118" x="967" y="50"/><text fill="#000000" font-family="sans-serif" font-size="14" lengthAdjust="spacing" textLength="104" x="974" y="72.1074">InvitationMapper</text><rect fill="#E2E2F0" height="32.6211" rx="2.5" ry="2.5" style="stroke:#181818;stroke-width:0.5;" width="118" x="967" y="901.3516"/><text fill="#000000" font-family="sans-serif" font-size="14" lengthAdjust="spacing" textLength="104" x="974" y="923.459">InvitationMapper</text><rect fill="#E2E2F0" height="32.6211" rx="2.5" ry="2.5" style="stroke:#181818;stroke-width:0.5;" width="120" x="1125" y="50"/><text fill="#000000" font-family="sans-serif" font-size="14" lengthAdjust="spacing" textLength="106" x="1132" y="72.1074">MerchantService</text><rect fill="#E2E2F0" height="32.6211" rx="2.5" ry="2.5" style="stroke:#181818;stroke-width:0.5;" width="120" x="1125" y="901.3516"/><text fill="#000000" font-family="sans-serif" font-size="14" lengthAdjust="spacing" textLength="106" x="1132" y="923.459">MerchantService</text><rect fill="#E2E2F0" height="32.6211" rx="2.5" ry="2.5" style="stroke:#181818;stroke-width:0.5;" width="75" x="1407.5" y="50"/><text fill="#000000" font-family="sans-serif" font-size="14" lengthAdjust="spacing" textLength="61" x="1414.5" y="72.1074">Database</text><rect fill="#E2E2F0" height="32.6211" rx="2.5" ry="2.5" style="stroke:#181818;stroke-width:0.5;" width="75" x="1407.5" y="901.3516"/><text fill="#000000" font-family="sans-serif" font-size="14" lengthAdjust="spacing" textLength="61" x="1414.5" y="923.459">Database</text><polygon fill="#181818" points="241.5,164.7852,251.5,168.7852,241.5,172.7852,245.5,168.7852" style="stroke:#181818;stroke-width:1.0;"/><line style="stroke:#181818;stroke-width:1.0;" x1="37.5" x2="247.5" y1="168.7852" y2="168.7852"/><text fill="#000000" font-family="sans-serif" font-size="13" font-weight="bold" lengthAdjust="spacing" textLength="7" x="44.5" y="137.5859">1</text><text fill="#000000" font-family="sans-serif" font-size="13" lengthAdjust="spacing" textLength="35" x="55.5" y="111.6494">POST</text><text fill="#000000" font-family="sans-serif" font-size="13" lengthAdjust="spacing" textLength="94" x="55.5" y="128.9404">api/v1/invitations</text><text fill="#000000" font-family="sans-serif" font-size="13" lengthAdjust="spacing" textLength="70" x="55.5" y="146.2314">InvitationDto</text><text fill="#000000" font-family="sans-serif" font-size="13" lengthAdjust="spacing" textLength="139" x="55.5" y="163.5225">&#1089;&#1086;&#1079;&#1076;&#1072;&#1085;&#1080;&#1077; &#1087;&#1088;&#1080;&#1075;&#1083;&#1072;&#1096;&#1077;&#1085;&#1080;&#1103;</text><polygon fill="#181818" points="799,213.3672,809,217.3672,799,221.3672,803,217.3672" style="stroke:#181818;stroke-width:1.0;"/><line style="stroke:#181818;stroke-width:1.0;" x1="253.5" x2="805" y1="217.3672" y2="217.3672"/><text fill="#000000" font-family="sans-serif" font-size="13" font-weight="bold" lengthAdjust="spacing" textLength="7" x="260.5" y="203.459">2</text><text fill="#000000" font-family="sans-serif" font-size="13" lengthAdjust="spacing" textLength="193" x="271.5" y="194.8135">&#1084;&#1077;&#1090;&#1086;&#1076; &#1089;&#1086;&#1093;&#1088;&#1072;&#1085;&#1077;&#1085;&#1080;&#1103; &#1087;&#1088;&#1080;&#1075;&#1083;&#1072;&#1096;&#1077;&#1085;&#1080;&#1103;</text><text fill="#000000" font-family="sans-serif" font-size="13" lengthAdjust="spacing" textLength="126" x="271.5" y="212.1045">save(InvitationDto dto)</text><line style="stroke:#181818;stroke-width:1.0;" x1="811" x2="853" y1="248.6582" y2="248.6582"/><line style="stroke:#181818;stroke-width:1.0;" x1="853" x2="853" y1="248.6582" y2="261.6582"/><line style="stroke:#181818;stroke-width:1.0;" x1="812" x2="853" y1="261.6582" y2="261.6582"/><polygon fill="#181818" points="822,257.6582,812,261.6582,822,265.6582,818,261.6582" style="stroke:#181818;stroke-width:1.0;"/><text fill="#000000" font-family="sans-serif" font-size="13" font-weight="bold" lengthAdjust="spacing" textLength="7" x="818" y="243.3955">3</text><text fill="#000000" font-family="sans-serif" font-size="13" lengthAdjust="spacing" textLength="115" x="829" y="243.3955">&#1042;&#1072;&#1083;&#1080;&#1076;&#1072;&#1094;&#1080;&#1103; &#1076;&#1072;&#1085;&#1085;&#1099;&#1093;</text><polygon fill="#181818" points="1173,306.2402,1183,310.2402,1173,314.2402,1177,310.2402" style="stroke:#181818;stroke-width:1.0;"/><line style="stroke:#181818;stroke-width:1.0;" x1="811" x2="1179" y1="310.2402" y2="310.2402"/><text fill="#000000" font-family="sans-serif" font-size="13" font-weight="bold" lengthAdjust="spacing" textLength="7" x="818" y="296.332">4</text><text fill="#000000" font-family="sans-serif" font-size="13" lengthAdjust="spacing" textLength="222" x="829" y="287.6865">&#1055;&#1088;&#1086;&#1074;&#1077;&#1088;&#1082;&#1072; &#1089;&#1091;&#1097;&#1077;&#1089;&#1090;&#1074;&#1086;&#1074;&#1072;&#1085;&#1080;&#1103; merchant'&#1072;</text><text fill="#000000" font-family="sans-serif" font-size="13" lengthAdjust="spacing" textLength="130" x="829" y="304.9775">find(String merchantId)</text><polygon fill="#181818" points="1433,337.5313,1443,341.5313,1433,345.5313,1437,341.5313" style="stroke:#181818;stroke-width:1.0;"/><line style="stroke:#181818;stroke-width:1.0;" x1="1185" x2="1439" y1="341.5313" y2="341.5313"/><text fill="#000000" font-family="sans-serif" font-size="13" font-weight="bold" lengthAdjust="spacing" textLength="7" x="1192" y="336.2686">5</text><text fill="#000000" font-family="sans-serif" font-size="13" lengthAdjust="spacing" textLength="225" x="1203" y="336.2686">&#1055;&#1086;&#1080;&#1089;&#1082; merchant'&#1072;, &#1075;&#1076;&#1077; id = merchantId</text><path d="M10,356.5313 L71,356.5313 L71,365.8223 L61,375.8223 L10,375.8223 L10,356.5313 " fill="#FFFFFF" style="stroke:#000000;stroke-width:1.5;"/><rect fill="none" height="226.6191" style="stroke:#000000;stroke-width:1.5;" width="1245" x="10" y="356.5313"/><text fill="#000000" font-family="sans-serif" font-size="13" font-weight="bold" lengthAdjust="spacing" textLength="16" x="25" y="371.5596">alt</text><text fill="#000000" font-family="sans-serif" font-size="11" font-weight="bold" lengthAdjust="spacing" textLength="219" x="86" y="370.4014">[merchant &#1089; id = merchantId &#1085;&#1077; &#1085;&#1072;&#1081;&#1076;&#1077;&#1085;]</text><polygon fill="#181818" points="822,412.4043,812,416.4043,822,420.4043,818,416.4043" style="stroke:#181818;stroke-width:1.0;"/><line style="stroke:#181818;stroke-width:1.0;" x1="816" x2="1184" y1="416.4043" y2="416.4043"/><text fill="#000000" font-family="sans-serif" font-size="13" font-weight="bold" lengthAdjust="spacing" textLength="7" x="828" y="402.4961">6</text><text fill="#000000" font-family="sans-serif" font-size="13" lengthAdjust="spacing" textLength="162" x="839" y="393.8506">&#1055;&#1088;&#1086;&#1073;&#1088;&#1072;&#1089;&#1099;&#1074;&#1072;&#1077;&#1090; &#1080;&#1089;&#1082;&#1083;&#1102;&#1095;&#1077;&#1085;&#1080;&#1077;</text><text fill="#000000" font-family="sans-serif" font-size="13" lengthAdjust="spacing" textLength="339" x="839" y="411.1416">NotFoundException("NOT_FOUND", "Merchant not found")</text><line style="stroke:#181818;stroke-width:1.0;" x1="811" x2="853" y1="447.6953" y2="447.6953"/><line style="stroke:#181818;stroke-width:1.0;" x1="853" x2="853" y1="447.6953" y2="460.6953"/><line style="stroke:#181818;stroke-width:1.0;" x1="812" x2="853" y1="460.6953" y2="460.6953"/><polygon fill="#181818" points="822,456.6953,812,460.6953,822,464.6953,818,460.6953" style="stroke:#181818;stroke-width:1.0;"/><text fill="#000000" font-family="sans-serif" font-size="13" font-weight="bold" lengthAdjust="spacing" textLength="7" x="818" y="442.4326">7</text><text fill="#000000" font-family="sans-serif" font-size="13" lengthAdjust="spacing" textLength="161" x="829" y="442.4326">&#1054;&#1073;&#1088;&#1072;&#1073;&#1072;&#1090;&#1099;&#1074;&#1072;&#1077;&#1090; &#1080;&#1089;&#1082;&#1083;&#1102;&#1095;&#1077;&#1085;&#1080;&#1077;</text><polygon fill="#181818" points="430,505.2773,420,509.2773,430,513.2773,426,509.2773" style="stroke:#181818;stroke-width:1.0;"/><line style="stroke:#181818;stroke-width:1.0;" x1="424" x2="810" y1="509.2773" y2="509.2773"/><text fill="#000000" font-family="sans-serif" font-size="13" font-weight="bold" lengthAdjust="spacing" textLength="7" x="436" y="495.3691">8</text><text fill="#000000" font-family="sans-serif" font-size="13" lengthAdjust="spacing" textLength="162" x="447" y="486.7236">&#1055;&#1088;&#1086;&#1073;&#1088;&#1072;&#1089;&#1099;&#1074;&#1072;&#1077;&#1090; &#1080;&#1089;&#1082;&#1083;&#1102;&#1095;&#1077;&#1085;&#1080;&#1077;</text><text fill="#000000" font-family="sans-serif" font-size="13" lengthAdjust="spacing" textLength="357" x="447" y="504.0146">NotFoundException("BAD_REQUEST", "Merchant not found")</text><polygon fill="#181818" points="48.5,571.1504,38.5,575.1504,48.5,579.1504,44.5,575.1504" style="stroke:#181818;stroke-width:1.0;"/><line style="stroke:#181818;stroke-width:1.0;" x1="42.5" x2="418" y1="575.1504" y2="575.1504"/><text fill="#000000" font-family="sans-serif" font-size="13" font-weight="bold" lengthAdjust="spacing" textLength="7" x="54.5" y="552.5967">9</text><text fill="#000000" font-family="sans-serif" font-size="13" lengthAdjust="spacing" textLength="65" x="65.5" y="535.3057">status: 404</text><text fill="#000000" font-family="sans-serif" font-size="13" lengthAdjust="spacing" textLength="90" x="65.5" y="552.5967">application\json</text><text fill="#000000" font-family="sans-serif" font-size="13" lengthAdjust="spacing" textLength="106" x="65.5" y="569.8877">ErrorResponseDto</text><polygon fill="#181818" points="1196,609.4414,1186,613.4414,1196,617.4414,1192,613.4414" style="stroke:#181818;stroke-width:1.0;"/><line style="stroke:#181818;stroke-width:1.0;" x1="1190" x2="1444" y1="613.4414" y2="613.4414"/><text fill="#000000" font-family="sans-serif" font-size="13" font-weight="bold" lengthAdjust="spacing" textLength="14" x="1202" y="608.1787">10</text><text fill="#000000" font-family="sans-serif" font-size="13" lengthAdjust="spacing" textLength="166" x="1220" y="608.1787">&#1042;&#1086;&#1079;&#1074;&#1088;&#1072;&#1097;&#1072;&#1077;&#1090; MerchantEntity</text><polygon fill="#181818" points="822,640.7324,812,644.7324,822,648.7324,818,644.7324" style="stroke:#181818;stroke-width:1.0;"/><line style="stroke:#181818;stroke-width:1.0;" x1="816" x2="1184" y1="644.7324" y2="644.7324"/><text fill="#000000" font-family="sans-serif" font-size="13" font-weight="bold" lengthAdjust="spacing" textLength="14" x="828" y="639.4697">11</text><text fill="#000000" font-family="sans-serif" font-size="13" lengthAdjust="spacing" textLength="166" x="846" y="639.4697">&#1042;&#1086;&#1079;&#1074;&#1088;&#1072;&#1097;&#1072;&#1077;&#1090; MerchantEntity</text><polygon fill="#181818" points="1014,689.3145,1024,693.3145,1014,697.3145,1018,693.3145" style="stroke:#181818;stroke-width:1.0;"/><line style="stroke:#181818;stroke-width:1.0;" x1="811" x2="1020" y1="693.3145" y2="693.3145"/><text fill="#000000" font-family="sans-serif" font-size="13" font-weight="bold" lengthAdjust="spacing" textLength="14" x="818" y="679.4063">12</text><text fill="#000000" font-family="sans-serif" font-size="13" lengthAdjust="spacing" textLength="125" x="836" y="670.7607">&#1052;&#1072;&#1087;&#1087;&#1080;&#1085;&#1075; &#1074; &#1089;&#1091;&#1097;&#1085;&#1086;&#1089;&#1090;&#1100;</text><text fill="#000000" font-family="sans-serif" font-size="13" lengthAdjust="spacing" textLength="173" x="836" y="688.0518">mapToEntity(InvitationDto dto)</text><polygon fill="#181818" points="822,720.6055,812,724.6055,822,728.6055,818,724.6055" style="stroke:#181818;stroke-width:1.0;"/><line style="stroke:#181818;stroke-width:1.0;" x1="816" x2="1025" y1="724.6055" y2="724.6055"/><text fill="#000000" font-family="sans-serif" font-size="13" font-weight="bold" lengthAdjust="spacing" textLength="14" x="828" y="719.3428">13</text><text fill="#000000" font-family="sans-serif" font-size="13" lengthAdjust="spacing" textLength="162" x="846" y="719.3428">&#1042;&#1086;&#1079;&#1074;&#1088;&#1072;&#1097;&#1072;&#1077;&#1090; InvitationEntity</text><polygon fill="#181818" points="1433,751.8965,1443,755.8965,1433,759.8965,1437,755.8965" style="stroke:#181818;stroke-width:1.0;"/><line style="stroke:#181818;stroke-width:1.0;" x1="811" x2="1439" y1="755.8965" y2="755.8965"/><text fill="#000000" font-family="sans-serif" font-size="13" font-weight="bold" lengthAdjust="spacing" textLength="14" x="818" y="750.6338">14</text><text fill="#000000" font-family="sans-serif" font-size="13" lengthAdjust="spacing" textLength="151" x="836" y="750.6338">&#1057;&#1086;&#1093;&#1088;&#1072;&#1085;&#1103;&#1077;&#1090; InvitationEntity</text><polygon fill="#181818" points="822,783.1875,812,787.1875,822,791.1875,818,787.1875" style="stroke:#181818;stroke-width:1.0;"/><line style="stroke:#181818;stroke-width:1.0;" x1="816" x2="1444" y1="787.1875" y2="787.1875"/><text fill="#000000" font-family="sans-serif" font-size="13" font-weight="bold" lengthAdjust="spacing" textLength="14" x="828" y="781.9248">15</text><text fill="#000000" font-family="sans-serif" font-size="13" lengthAdjust="spacing" textLength="189" x="846" y="781.9248">&#1042;&#1086;&#1079;&#1074;&#1088;&#1072;&#1097;&#1072;&#1077;&#1090; InvitationEntity &#1089; ID</text><polygon fill="#181818" points="264.5,814.4785,254.5,818.4785,264.5,822.4785,260.5,818.4785" style="stroke:#181818;stroke-width:1.0;"/><line style="stroke:#181818;stroke-width:1.0;" x1="258.5" x2="810" y1="818.4785" y2="818.4785"/><text fill="#000000" font-family="sans-serif" font-size="13" font-weight="bold" lengthAdjust="spacing" textLength="14" x="270.5" y="813.2158">16</text><text fill="#000000" font-family="sans-serif" font-size="13" lengthAdjust="spacing" textLength="156" x="288.5" y="813.2158">&#1042;&#1086;&#1079;&#1074;&#1088;&#1072;&#1097;&#1072;&#1077;&#1090; ResponseDto</text><polygon fill="#181818" points="48.5,880.3516,38.5,884.3516,48.5,888.3516,44.5,884.3516" style="stroke:#181818;stroke-width:1.0;"/><line style="stroke:#181818;stroke-width:1.0;" x1="42.5" x2="252.5" y1="884.3516" y2="884.3516"/><text fill="#000000" font-family="sans-serif" font-size="13" font-weight="bold" lengthAdjust="spacing" textLength="14" x="54.5" y="861.7979">17</text><text fill="#000000" font-family="sans-serif" font-size="13" lengthAdjust="spacing" textLength="65" x="72.5" y="844.5068">status: 200</text><text fill="#000000" font-family="sans-serif" font-size="13" lengthAdjust="spacing" textLength="170" x="72.5" y="861.7979">content-type: application\json</text><text fill="#000000" font-family="sans-serif" font-size="13" lengthAdjust="spacing" textLength="78" x="72.5" y="879.0889">ResponseDto</text><!--SRC=[hLNRRX916BxVfvZGYs9I14slI3IfGXCk2bhWZgIPxaxBACoCkxDextf8rQR69hqs6j-0KeXOf7s5cJVotrtEx49h30dPdVddE_o7sTMgbC999vEYXfbqwxN79gyd7VBE9Sma2OlYVHlN3GExaZEtlaji0vkIsoXMTeWTCmIs9JMfWCCebcCDAh6adBtaJDgyLfiBoNumYPYEsB0Qr2IHK4LYBzpVmaBCqMmHswp2K_ZX39Pu5pkmR0GsKE9vXFeqUbKebb25OK6JZIT9EWfoO75y92CvlEiZTQj-gRPgghxggWvIT_eG7gvLJpNrPzNnblM54SuresAeFOtK7zNHnm3THXw3FWLGZs405y42UXpS8F5faPRaZumGbcZoI-3g0JouqXy3li1WNv_hqqYisH80qW-GUQjQOEPGtQWccD4d-WnUZy1Tozzg3hJN1wTN8Qp2zYYpuaLfKxO_sibPu6EMn6SUbTUZ1DGk9Erc4d4DGQxQK1vgeMSJW0QkoPNtLIe9MX6KlHrjWTBPMEJbt_jhgjyUbkf7g0dDQP29Aw-EOFxSDmubHe5MrTDVzQUWZa1IONakDxdBhD7qn6FvGcbdir3EPs9hurmZnYNQyo9Z3opozq2CkW91nqi4HI973_T_iVnY8xEpdNrTpXPBqQQZDVWI_N5F8mVKkquQhQVM_TaMDMhwVYfl7CvWAMlRtDucZe119p0t1c4MWlOmnjqLrUMN_XtGyesU3KmEmx9CKddma4wv3rfeEUQlI43x1WXtyEj2dg-HQWr7i0-t2WoX_WBMwrYKU02zvEuOu4wJBT4-3boeVdgAVuulFNqH0JDTbt_MuurwBdEFuPdwI8H2JxRFWXj_fYMVfb9G11E229C9UI186eKqw2JuNm00]--></g></svg>