<?xml version="1.0" encoding="us-ascii" standalone="no"?><svg xmlns="http://www.w3.org/2000/svg" xmlns:xlink="http://www.w3.org/1999/xlink" contentStyleType="text/css" height="737px" preserveAspectRatio="none" style="width:1359px;height:737px;background:#FFFFFF;" version="1.1" viewBox="0 0 1359 737" width="1359px" zoomAndPan="magnify"><defs/><g><rect fill="#FFC0CB" height="165.0371" style="stroke:#000000;stroke-width:1.5;" width="1343" x="10" y="263.6582"/><line style="stroke:#181818;stroke-width:0.5;stroke-dasharray:5.0,5.0;" x1="37" x2="37" y1="83.6211" y2="654.0234"/><line style="stroke:#181818;stroke-width:0.5;stroke-dasharray:5.0,5.0;" x1="311.5" x2="311.5" y1="83.6211" y2="654.0234"/><line style="stroke:#181818;stroke-width:0.5;stroke-dasharray:5.0,5.0;" x1="476.5" x2="476.5" y1="83.6211" y2="654.0234"/><line style="stroke:#181818;stroke-width:0.5;stroke-dasharray:5.0,5.0;" x1="846.5" x2="846.5" y1="83.6211" y2="654.0234"/><line style="stroke:#181818;stroke-width:0.5;stroke-dasharray:5.0,5.0;" x1="1069" x2="1069" y1="83.6211" y2="654.0234"/><line style="stroke:#181818;stroke-width:0.5;stroke-dasharray:5.0,5.0;" x1="1198" x2="1198" y1="83.6211" y2="654.0234"/><line style="stroke:#181818;stroke-width:0.5;stroke-dasharray:5.0,5.0;" x1="1305" x2="1305" y1="83.6211" y2="654.0234"/><text fill="#000000" font-family="sans-serif" font-size="14" lengthAdjust="spacing" textLength="29" x="20" y="80.1074">User</text><ellipse cx="37.5" cy="13.5" fill="#E2E2F0" rx="8" ry="8" style="stroke:#181818;stroke-width:0.5;"/><path d="M37.5,21.5 L37.5,48.5 M24.5,29.5 L50.5,29.5 M37.5,48.5 L24.5,63.5 M37.5,48.5 L50.5,63.5 " fill="none" style="stroke:#181818;stroke-width:0.5;"/><text fill="#000000" font-family="sans-serif" font-size="14" lengthAdjust="spacing" textLength="29" x="20" y="668.1309">User</text><ellipse cx="37.5" cy="680.1445" fill="#E2E2F0" rx="8" ry="8" style="stroke:#181818;stroke-width:0.5;"/><path d="M37.5,688.1445 L37.5,715.1445 M24.5,696.1445 L50.5,696.1445 M37.5,715.1445 L24.5,730.1445 M37.5,715.1445 L50.5,730.1445 " fill="none" style="stroke:#181818;stroke-width:0.5;"/><rect fill="#E2E2F0" height="32.6211" rx="2.5" ry="2.5" style="stroke:#181818;stroke-width:0.5;" width="132" x="245.5" y="50"/><text fill="#000000" font-family="sans-serif" font-size="14" lengthAdjust="spacing" textLength="118" x="252.5" y="72.1074">InvitationController</text><rect fill="#E2E2F0" height="32.6211" rx="2.5" ry="2.5" style="stroke:#181818;stroke-width:0.5;" width="132" x="245.5" y="653.0234"/><text fill="#000000" font-family="sans-serif" font-size="14" lengthAdjust="spacing" textLength="118" x="252.5" y="675.1309">InvitationController</text><rect fill="#E2E2F0" height="32.6211" rx="2.5" ry="2.5" style="stroke:#181818;stroke-width:0.5;" width="179" x="387.5" y="50"/><text fill="#000000" font-family="sans-serif" font-size="14" lengthAdjust="spacing" textLength="165" x="394.5" y="72.1074">ExceptionControllerAdvice</text><rect fill="#E2E2F0" height="32.6211" rx="2.5" ry="2.5" style="stroke:#181818;stroke-width:0.5;" width="179" x="387.5" y="653.0234"/><text fill="#000000" font-family="sans-serif" font-size="14" lengthAdjust="spacing" textLength="165" x="394.5" y="675.1309">ExceptionControllerAdvice</text><rect fill="#E2E2F0" height="32.6211" rx="2.5" ry="2.5" style="stroke:#181818;stroke-width:0.5;" width="117" x="788.5" y="50"/><text fill="#000000" font-family="sans-serif" font-size="14" lengthAdjust="spacing" textLength="103" x="795.5" y="72.1074">InvitationService</text><rect fill="#E2E2F0" height="32.6211" rx="2.5" ry="2.5" style="stroke:#181818;stroke-width:0.5;" width="117" x="788.5" y="653.0234"/><text fill="#000000" font-family="sans-serif" font-size="14" lengthAdjust="spacing" textLength="103" x="795.5" y="675.1309">InvitationService</text><rect fill="#E2E2F0" height="32.6211" rx="2.5" ry="2.5" style="stroke:#181818;stroke-width:0.5;" width="118" x="1010" y="50"/><text fill="#000000" font-family="sans-serif" font-size="14" lengthAdjust="spacing" textLength="104" x="1017" y="72.1074">InvitationMapper</text><rect fill="#E2E2F0" height="32.6211" rx="2.5" ry="2.5" style="stroke:#181818;stroke-width:0.5;" width="118" x="1010" y="653.0234"/><text fill="#000000" font-family="sans-serif" font-size="14" lengthAdjust="spacing" textLength="104" x="1017" y="675.1309">InvitationMapper</text><rect fill="#E2E2F0" height="32.6211" rx="2.5" ry="2.5" style="stroke:#181818;stroke-width:0.5;" width="120" x="1138" y="50"/><text fill="#000000" font-family="sans-serif" font-size="14" lengthAdjust="spacing" textLength="106" x="1145" y="72.1074">MerchantService</text><rect fill="#E2E2F0" height="32.6211" rx="2.5" ry="2.5" style="stroke:#181818;stroke-width:0.5;" width="120" x="1138" y="653.0234"/><text fill="#000000" font-family="sans-serif" font-size="14" lengthAdjust="spacing" textLength="106" x="1145" y="675.1309">MerchantService</text><rect fill="#E2E2F0" height="32.6211" rx="2.5" ry="2.5" style="stroke:#181818;stroke-width:0.5;" width="75" x="1268" y="50"/><text fill="#000000" font-family="sans-serif" font-size="14" lengthAdjust="spacing" textLength="61" x="1275" y="72.1074">Database</text><rect fill="#E2E2F0" height="32.6211" rx="2.5" ry="2.5" style="stroke:#181818;stroke-width:0.5;" width="75" x="1268" y="653.0234"/><text fill="#000000" font-family="sans-serif" font-size="14" lengthAdjust="spacing" textLength="61" x="1275" y="675.1309">Database</text><polygon fill="#181818" points="299.5,147.4941,309.5,151.4941,299.5,155.4941,303.5,151.4941" style="stroke:#181818;stroke-width:1.0;"/><line style="stroke:#181818;stroke-width:1.0;" x1="37.5" x2="305.5" y1="151.4941" y2="151.4941"/><text fill="#000000" font-family="sans-serif" font-size="13" font-weight="bold" lengthAdjust="spacing" textLength="7" x="44.5" y="128.9404">1</text><text fill="#000000" font-family="sans-serif" font-size="13" lengthAdjust="spacing" textLength="26" x="55.5" y="111.6494">GET</text><text fill="#000000" font-family="sans-serif" font-size="13" lengthAdjust="spacing" textLength="166" x="55.5" y="128.9404">api/v1/invitations/{invitationId}</text><text fill="#000000" font-family="sans-serif" font-size="13" lengthAdjust="spacing" textLength="239" x="55.5" y="146.2314">&#1087;&#1086;&#1083;&#1091;&#1095;&#1080;&#1090;&#1100; &#1080;&#1092;&#1085;&#1086;&#1088;&#1084;&#1072;&#1094;&#1080;&#1102; &#1087;&#1086; &#1087;&#1088;&#1080;&#1075;&#1083;&#1072;&#1096;&#1077;&#1085;&#1080;&#1102;</text><polygon fill="#181818" points="835,213.3672,845,217.3672,835,221.3672,839,217.3672" style="stroke:#181818;stroke-width:1.0;"/><line style="stroke:#181818;stroke-width:1.0;" x1="311.5" x2="841" y1="217.3672" y2="217.3672"/><text fill="#000000" font-family="sans-serif" font-size="13" font-weight="bold" lengthAdjust="spacing" textLength="7" x="318.5" y="194.8135">2</text><text fill="#000000" font-family="sans-serif" font-size="13" lengthAdjust="spacing" textLength="178" x="329.5" y="177.5225">&#1042;&#1099;&#1079;&#1086;&#1074; &#1084;&#1077;&#1090;&#1086;&#1076;&#1072; &#1076;&#1083;&#1103; &#1087;&#1086;&#1083;&#1091;&#1095;&#1077;&#1085;&#1080;&#1103;</text><text fill="#000000" font-family="sans-serif" font-size="13" lengthAdjust="spacing" textLength="178" x="329.5" y="194.8135">&#1080;&#1085;&#1092;&#1086;&#1088;&#1084;&#1072;&#1094;&#1080;&#1080; &#1087;&#1086; &#1087;&#1088;&#1080;&#1075;&#1083;&#1072;&#1096;&#1077;&#1085;&#1080;&#1102;</text><text fill="#000000" font-family="sans-serif" font-size="13" lengthAdjust="spacing" textLength="126" x="329.5" y="212.1045">find(String invitationId)</text><polygon fill="#181818" points="1293.5,244.6582,1303.5,248.6582,1293.5,252.6582,1297.5,248.6582" style="stroke:#181818;stroke-width:1.0;"/><line style="stroke:#181818;stroke-width:1.0;" x1="847" x2="1299.5" y1="248.6582" y2="248.6582"/><text fill="#000000" font-family="sans-serif" font-size="13" font-weight="bold" lengthAdjust="spacing" textLength="7" x="854" y="243.3955">3</text><text fill="#000000" font-family="sans-serif" font-size="13" lengthAdjust="spacing" textLength="215" x="865" y="243.3955">&#1055;&#1086;&#1080;&#1089;&#1082; invitations, &#1075;&#1076;&#1077; id = invitationId</text><path d="M10,263.6582 L71,263.6582 L71,272.9492 L61,282.9492 L10,282.9492 L10,263.6582 " fill="#FFFFFF" style="stroke:#000000;stroke-width:1.5;"/><rect fill="none" height="165.0371" style="stroke:#000000;stroke-width:1.5;" width="1343" x="10" y="263.6582"/><text fill="#000000" font-family="sans-serif" font-size="13" font-weight="bold" lengthAdjust="spacing" textLength="16" x="25" y="278.6865">alt</text><text fill="#000000" font-family="sans-serif" font-size="11" font-weight="bold" lengthAdjust="spacing" textLength="268" x="86" y="277.5283">[&#1047;&#1072;&#1087;&#1080;&#1089;&#1100; invitations &#1089; id = invitationId &#1085;&#1077; &#1085;&#1072;&#1081;&#1076;&#1077;&#1085;&#1072;]</text><polygon fill="#181818" points="858,302.2402,848,306.2402,858,310.2402,854,306.2402" style="stroke:#181818;stroke-width:1.0;"/><line style="stroke:#181818;stroke-width:1.0;" x1="852" x2="1304.5" y1="306.2402" y2="306.2402"/><text fill="#000000" font-family="sans-serif" font-size="13" font-weight="bold" lengthAdjust="spacing" textLength="7" x="864" y="300.9775">4</text><text fill="#000000" font-family="sans-serif" font-size="13" lengthAdjust="spacing" textLength="203" x="875" y="300.9775">&#1047;&#1072;&#1087;&#1080;&#1089;&#1100; InvitationEntity &#1085;&#1077; &#1085;&#1072;&#1081;&#1076;&#1077;&#1085;&#1072;</text><polygon fill="#181818" points="488,350.8223,478,354.8223,488,358.8223,484,354.8223" style="stroke:#181818;stroke-width:1.0;"/><line style="stroke:#181818;stroke-width:1.0;" x1="482" x2="846" y1="354.8223" y2="354.8223"/><text fill="#000000" font-family="sans-serif" font-size="13" font-weight="bold" lengthAdjust="spacing" textLength="7" x="494" y="340.9141">5</text><text fill="#000000" font-family="sans-serif" font-size="13" lengthAdjust="spacing" textLength="154" x="505" y="332.2686">&#1042;&#1086;&#1079;&#1074;&#1088;&#1072;&#1097;&#1072;&#1077;&#1090; &#1080;&#1089;&#1082;&#1083;&#1102;&#1095;&#1077;&#1085;&#1080;&#1077;:</text><text fill="#000000" font-family="sans-serif" font-size="13" lengthAdjust="spacing" textLength="335" x="505" y="349.5596">NotFoundException("NOT_FOUND", "Invitation not found")</text><polygon fill="#181818" points="48.5,416.6953,38.5,420.6953,48.5,424.6953,44.5,420.6953" style="stroke:#181818;stroke-width:1.0;"/><line style="stroke:#181818;stroke-width:1.0;" x1="42.5" x2="476" y1="420.6953" y2="420.6953"/><text fill="#000000" font-family="sans-serif" font-size="13" font-weight="bold" lengthAdjust="spacing" textLength="7" x="54.5" y="398.1416">6</text><text fill="#000000" font-family="sans-serif" font-size="13" lengthAdjust="spacing" textLength="65" x="65.5" y="380.8506">status: 404</text><text fill="#000000" font-family="sans-serif" font-size="13" lengthAdjust="spacing" textLength="90" x="65.5" y="398.1416">application\json</text><text fill="#000000" font-family="sans-serif" font-size="13" lengthAdjust="spacing" textLength="106" x="65.5" y="415.4326">ErrorResponseDto</text><polygon fill="#181818" points="858,454.9863,848,458.9863,858,462.9863,854,458.9863" style="stroke:#181818;stroke-width:1.0;"/><line style="stroke:#181818;stroke-width:1.0;" x1="852" x2="1304.5" y1="458.9863" y2="458.9863"/><text fill="#000000" font-family="sans-serif" font-size="13" font-weight="bold" lengthAdjust="spacing" textLength="7" x="864" y="453.7236">7</text><text fill="#000000" font-family="sans-serif" font-size="13" lengthAdjust="spacing" textLength="162" x="875" y="453.7236">&#1042;&#1086;&#1079;&#1074;&#1088;&#1072;&#1097;&#1072;&#1077;&#1090; InvitationEntity</text><polygon fill="#181818" points="1057,503.5684,1067,507.5684,1057,511.5684,1061,507.5684" style="stroke:#181818;stroke-width:1.0;"/><line style="stroke:#181818;stroke-width:1.0;" x1="847" x2="1063" y1="507.5684" y2="507.5684"/><text fill="#000000" font-family="sans-serif" font-size="13" font-weight="bold" lengthAdjust="spacing" textLength="7" x="854" y="493.6602">8</text><text fill="#000000" font-family="sans-serif" font-size="13" lengthAdjust="spacing" textLength="174" x="865" y="485.0146">&#1052;&#1072;&#1087;&#1087;&#1080;&#1085;&#1075; InvitationEntity &#1074; &#1076;&#1090;&#1086;</text><text fill="#000000" font-family="sans-serif" font-size="13" lengthAdjust="spacing" textLength="187" x="865" y="502.3057">mapToDto(InvitationEntity entity)</text><polygon fill="#181818" points="858,534.8594,848,538.8594,858,542.8594,854,538.8594" style="stroke:#181818;stroke-width:1.0;"/><line style="stroke:#181818;stroke-width:1.0;" x1="852" x2="1068" y1="538.8594" y2="538.8594"/><text fill="#000000" font-family="sans-serif" font-size="13" font-weight="bold" lengthAdjust="spacing" textLength="7" x="864" y="533.5967">9</text><text fill="#000000" font-family="sans-serif" font-size="13" lengthAdjust="spacing" textLength="148" x="875" y="533.5967">&#1042;&#1086;&#1079;&#1074;&#1088;&#1072;&#1097;&#1072;&#1077;&#1090; InvitationDto</text><polygon fill="#181818" points="322.5,566.1504,312.5,570.1504,322.5,574.1504,318.5,570.1504" style="stroke:#181818;stroke-width:1.0;"/><line style="stroke:#181818;stroke-width:1.0;" x1="316.5" x2="846" y1="570.1504" y2="570.1504"/><text fill="#000000" font-family="sans-serif" font-size="13" font-weight="bold" lengthAdjust="spacing" textLength="14" x="328.5" y="564.8877">10</text><text fill="#000000" font-family="sans-serif" font-size="13" lengthAdjust="spacing" textLength="148" x="346.5" y="564.8877">&#1042;&#1086;&#1079;&#1074;&#1088;&#1072;&#1097;&#1072;&#1077;&#1090; InvitationDto</text><polygon fill="#181818" points="48.5,632.0234,38.5,636.0234,48.5,640.0234,44.5,636.0234" style="stroke:#181818;stroke-width:1.0;"/><line style="stroke:#181818;stroke-width:1.0;" x1="42.5" x2="310.5" y1="636.0234" y2="636.0234"/><text fill="#000000" font-family="sans-serif" font-size="13" font-weight="bold" lengthAdjust="spacing" textLength="14" x="54.5" y="613.4697">11</text><text fill="#000000" font-family="sans-serif" font-size="13" lengthAdjust="spacing" textLength="65" x="72.5" y="596.1787">status: 200</text><text fill="#000000" font-family="sans-serif" font-size="13" lengthAdjust="spacing" textLength="90" x="72.5" y="613.4697">application\json</text><text fill="#000000" font-family="sans-serif" font-size="13" lengthAdjust="spacing" textLength="70" x="72.5" y="630.7607">InvitationDto</text><!--SRC=[dLHDRzD04BtxLupS0q5gSK0zMG89aHJrq5IYxIqIsjhRPi7PNTRh0498j4Ly2DHANBWWyHUYDb43eUrVsFr7Z1r8xDef7vVrUZtpvirxuxtMqLh6lkV9Y72TTACRWUXwCNsIK1xGfP2HNKMwZaCIBNZItQRA8O4M2jojc2hNaKHf5Z29oU2kyXxJH3F1xmckbOYYKaZpMK1bCU9ks6C1dGkrGTMLtzU8bAKoQrG57TnL9pU89jiancDdqWOitPd3teVxpKreSoAPrxlfiMbCxBsOlQo6Bp76N9XpCxO7zgqPsNtx4V3nsfoPS_lA_31z-mRV3o6DmWNFHkR4ZF7ydHbY57vpgZaWkmezV32Vx0TpYZMF0V67TX-t0zC7NCRs279q9lX7ASUHEKDIEKfcT1KbJDbXFAnjQCNuBkHRlkvKi4AgKtMHuLUaCB9xvdikCru4h38mGs0Xt2v0EYJI2qyxJ5DOa8m_1lFPz94TGg2SEGYmU-LiGCh3TEcRRob-kdDcT2wPdDCnNsGMqEIQwUVLe6MO37t-TATkeHQdvXXLxjlt28U6mKGSTEdmjqjcwAFcBQ5NHCB3AM3DRQrlFbnPtsertCLy6y25XfqqraL3vXF8-6N3xaECgKdimt9zEHjj6R4W0si_YX6npPjA2VM0nXAbfWqj7Cf3G6_-IisgFY-hEbV1qd-DW5yoUoxIqJKd5GRX-0_IuKVYNI8t1HAkbQ9ezYZCxAyA_zj9gikVsoZS9V-6MBm2IkxTgjUhtIi0_WG0]--></g></svg>